# xmcd
#
# Track frame offsets: 
#        150
#        14897
#        26780
#        37148
#        52481
#        69482
#        92449
#        106004
#        121803
#        134029
#        148698
#
# Disc length: 2358 seconds
#
# Revision: 0
# Processed by: cddbd v1.5.2PL0 Copyright (c) Steve Scherf et al.
# Submitted via: ExactAudioCopy v0.99pb4
#
DISCID=a709340b
DTITLE=Greater Good - Shake Till I Let Go
DYEAR=2008
DGENRE=Acid
TTITLE0=Hey Mister
TTITLE1=Just Got Robbed
TTITLE2=Hold On
TTITLE3=Doing It Right
TTITLE4=Love 'em and Leave 'em
TTITLE5=Lowry Pier
TTITLE6=Demolition
TTITLE7=Dance Quickly
TTITLE8=Time for Entertaining
TTITLE9=Selfish Sun
TTITLE10=Molly Moses
EXTD=
EXTT0=
EXTT1=
EXTT2=
EXTT3=
EXTT4=
EXTT5=
EXTT6=
EXTT7=
EXTT8=
EXTT9=
EXTT10=
PLAYORDER=
